#!OML:ASF F:\VICON\USERDATA\INSTALL\rory3\rory3.ASF
:FULLY-SPECIFIED
:DEGREES
469
root 1.02814 26.4775 1.84826 -171.316 -22.1026 166.509
lowerback 24.9947 -5.02574 -0.935387
upperback 6.30573 -8.18817 -2.84106
thorax -7.12092 -4.41254 -0.0210618
lowerneck -12.0082 -4.33624 -9.88072
upperneck -4.54533 -5.06901 8.71908
head 1.04205 -2.51001 3.99958
rclavicle 2.54444e-014 1.96797e-014
rhumerus 5.63325 -3.73917 -77.7155
rradius 107.058
rwrist -9.99205
rhand -29.2904 -10.0895
rfingers 7.12502
rthumb -2.63221 -40.053
lclavicle 2.54444e-014 1.96797e-014
lhumerus -0.551814 -12.6212 86.4021
lradius 60.483
lwrist 16.1913
lhand -35.2544 5.69584
lfingers 7.12502
lthumb -8.39026 35.5092
rfemur -45.8817 5.16369 6.9953
rtibia 74.5944
rfoot -35.7854 -14.7603
rtoes 5.16502
lfemur -24.4642 3.14752 -28.9872
ltibia 35.3153
lfoot 20.2374 5.45348
ltoes -9.85497
470
root 1.03618 26.5219 1.8294 -171.244 -22.1034 166.54
lowerback 24.8378 -5.03625 -0.97069
upperback 6.33199 -8.19799 -2.76681
thorax -6.99682 -4.41895 0.0633026
lowerneck -12.1675 -4.31556 -10.0415
upperneck -4.40716 -5.00936 8.81627
head 1.1093 -2.47191 4.05434
rclavicle 1.94809e-014 -3.53837e-014
rhumerus 5.46751 -3.47586 -77.767
rradius 106.957
rwrist -9.79541
rhand -29.5835 -10.054
rfingers 7.12502
rthumb -2.91522 -40.0138
lclavicle 1.94809e-014 -3.53837e-014
lhumerus -0.4402 -12.4742 86.4488
lradius 60
lwrist 16.084
lhand -34.4812 6.53309
lfingers 7.12502
lthumb -7.64405 36.3749
rfemur -45.6171 5.24769 7.07959
rtibia 74.0157
rfoot -35.5097 -14.823
rtoes 5.01421
lfemur -24.7936 3.36377 -28.8302
ltibia 35.9852
lfoot 20.3895 5.12063
ltoes -8.90558
471
root 1.04403 26.6146 1.81036 -171.295 -22.112 166.521
lowerback 24.8582 -5.08346 -0.989371
upperback 6.35931 -8.26956 -2.75857
thorax -6.97356 -4.45621 0.104389
lowerneck -12.3927 -4.12449 -10.0724
upperneck -4.25202 -4.7332 8.58998
head 1.15693 -2.33173 4.00071
rclavicle 7.95139e-014 -3.26007e-014
rhumerus 5.23931 -3.15583 -77.9249
rradius 106.833
rwrist -9.51134
rhand -29.5714 -10.0206
rfingers 7.12502
rthumb -2.9035 -39.9806
lclavicle 7.95139e-014 -3.26007e-014
lhumerus -0.371058 -12.3191 86.4351
lradius 59.4294
lwrist 15.912
lhand -34.257 6.8443
lfingers 7.12502
lthumb -7.42764 36.6939
rfemur -44.9489 5.44995 7.09843
rtibia 73.2197
rfoot -35.2855 -14.8366
rtoes 5.37186
lfemur -24.8574 3.63545 -28.7484
ltibia 36.6027
lfoot 20.6037 4.7261
ltoes -7.82505
472
root 1.04853 26.6705 1.79062 -171.334 -22.2037 166.595
lowerback 24.8943 -5.21235 -0.790526
upperback 6.31805 -8.38534 -2.79841
thorax -7.07081 -4.50888 -0.0060717
lowerneck -12.5673 -4.13478 -10.1903
upperneck -4.05654 -4.71844 8.77165
head 1.2496 -2.31375 4.07142
rclavicle 3.4191e-014 3.27995e-014
rhumerus 4.81224 -2.83233 -78.1005
rradius 106.743
rwrist -9.27486
rhand -29.7295 -9.90662
rfingers 7.12502
rthumb -3.05622 -39.8645
lclavicle 3.4191e-014 3.27995e-014
lhumerus -0.460236 -12.2593 86.3331
lradius 58.8404
lwrist 15.7943
lhand -34.5254 6.50648
lfingers 7.12502
lthumb -7.68671 36.3468
rfemur -44.4917 5.54815 7.20196
rtibia 72.6189
rfoot -35.1202 -14.7525
rtoes 5.61459
lfemur -25.1217 3.88164 -28.5963
ltibia 37.3961
lfoot 21.0056 3.976
ltoes -6.83872
473
root 1.05347 26.7082 1.76892 -171.335 -22.3402 166.676
lowerback 24.8389 -5.31119 -0.530866
upperback 6.29392 -8.44244 -2.83556
thorax -7.11083 -4.53518 -0.175445
lowerneck -12.568 -4.11861 -10.2158
upperneck -3.97868 -4.69135 8.88769
head 1.27534 -2.29496 4.11199
rclavicle 9.93923e-016 2.72335e-014
rhumerus 4.39327 -2.70276 -78.1387
rradius 106.632
rwrist -9.13265
rhand -29.8543 -9.34585
rfingers 7.12502
rthumb -3.1768 -39.3019
lclavicle 9.93923e-016 2.72335e-014
lhumerus -0.573394 -12.3053 86.2795
lradius 58.3228
lwrist 15.7394
lhand -34.7444 6.21526
lfingers 7.12502
lthumb -7.89804 36.0477
rfemur -44.1529 5.53809 7.33722
rtibia 72.128
rfoot -34.9975 -14.6375
rtoes 6.07544
lfemur -25.4995 4.03727 -28.4111
ltibia 38.3057
lfoot 21.5303 3.19262
ltoes -3.76983
474
root 1.06022 26.7454 1.748 -171.449 -22.3715 166.675
lowerback 24.9483 -5.3088 -0.462939
upperback 6.29017 -8.42819 -2.85288
thorax -7.18164 -4.52854 -0.224081
lowerneck -12.4202 -4.08862 -10.1652
upperneck -4.05708 -4.66516 8.76092
head 1.22139 -2.28677 4.06952
rclavicle 3.83654e-014 -3.83654e-014
rhumerus 3.96853 -2.57879 -78.1563
rradius 106.503
rwrist -8.94346
rhand -29.9613 -9.14823
rfingers 7.12502
rthumb -3.28009 -39.1027
lclavicle 3.83654e-014 -3.83654e-014
lhumerus -0.68073 -12.3255 86.3481
lradius 57.8874
lwrist 15.6416
lhand -34.8311 6.14902
lfingers 7.12502
lthumb -7.98176 35.9783
rfemur -43.7001 5.5748 7.41114
rtibia 71.7224
rfoot -34.921 -14.5706
rtoes 6.30001
lfemur -25.8576 4.31944 -28.3159
ltibia 39.5481
lfoot 21.4513 2.8685
ltoes -2.76833
475
root 1.06524 26.7849 1.72655 -171.502 -22.2894 166.617
lowerback 24.9385 -5.27549 -0.512244
upperback 6.31505 -8.40606 -2.88554
thorax -7.14751 -4.52099 -0.241351
lowerneck -12.3955 -4.07184 -10.0249
upperneck -4.06943 -4.66157 8.60867
head 1.20539 -2.28965 4.00073
rclavicle -8.3092e-014 -4.17448e-014
rhumerus 3.6345 -2.358 -78.2671
rradius 106.378
rwrist -8.70511
rhand -30.0258 -8.90216
rfingers 7.12502
rthumb -3.34236 -38.8557
lclavicle -8.3092e-014 -4.17448e-014
lhumerus -0.701115 -12.274 86.3779
lradius 57.4149
lwrist 15.39
lhand -34.9351 6.2776
lfingers 7.12502
lthumb -8.08215 36.1031
rfemur -43.328 5.69503 7.38383
rtibia 71.2952
rfoot -34.7632 -14.4358
rtoes 6.65877
lfemur -26.3207 4.7935 -28.3323
ltibia 40.9469
lfoot 21.0427 2.87257
ltoes -4.67997
